<svg width="256" height="256" xmlns="http://www.w3.org/2000/svg">

 <g>
  <title>background</title>
  <rect fill="none" id="canvas_background" height="402" width="582" y="-1" x="-1"/>
 </g>
 <g>
  <title>Layer 1</title>
  <path id="svg_4" fill="#66247a" d="m244.192308,245.507692l-231.4,0c-3.3,0 -6,-2.7 -6,-6l0,-224c0,-3.3 2.7,-6 6,-6l231.4,0c3.3,0 6,2.7 6,6l0,224c0,3.3 -2.7,6 -6,6z"/>
  <path id="svg_5" opacity="0.3" d="m243.7,228.5l-231.4,0c-3.3,0 -6,-2.7 -6,-6l0,17.5c0,3.3 2.7,6 6,6l231.4,0c3.3,0 6,-2.7 6,-6l0,-17.5c0,3.3 -2.7,6 -6,6z"/>
  <path opacity="0.7" id="svg_8" fill="#CCCCCC" d="m109.4,97.7l21.6,0c4,0 7.3,3.4 7.3,7.7l0,-6.8c0,-4.3 -3.3,-7.7 -7.3,-7.7l-21.6,0c-4,0 -7.3,3.4 -7.3,7.7l0,6.8c0,-4.3 3.3,-7.7 7.3,-7.7z"/>
  <path opacity="0.7" id="svg_9" fill="#CCCCCC" d="m109,133.7l43.2,0c3.8,0 6.9,3.4 6.9,7.7l0,-6.8c0,-4.2 -3.1,-7.7 -6.9,-7.7l-43.2,0c-3.8,0 -6.9,3.4 -6.9,7.7l0,6.8c0,-4.3 3.1,-7.7 6.9,-7.7z"/>
  <path opacity="0.7" id="svg_10" fill="#CCCCCC" d="m148,173.2l-39.9,0c-20.5,0 -37.1,-16.3 -37.1,-36.5l0,6.8c0,20.2 16.6,36.5 37.1,36.5l39.9,0c20.5,0 37,-16.3 37,-36.5l0,-6.8c0,20.1 -16.5,36.5 -37,36.5z"/>
  <path id="svg_11" stroke-width="0.2835" stroke-miterlimit="10" stroke="#FDFDFE" fill="#FCFCFC" d="m177.6,103.4c4.1,0 7.4,3.3 7.4,7.3l0,25.9c0,20.2 -16.6,36.5 -37,36.5l-39.9,0c-20.5,0 -37.1,-16.3 -37.1,-36.5l0,-40.1c0,-20.2 16.6,-36.5 37.1,-36.5l18.7,0c20.5,0 37.1,16.4 37.1,36.6c0.3,3.8 3.5,6.8 7.5,6.8l6.2,0zm-25.4,38.9c3.8,0 6.9,-3.5 6.9,-7.8c0,-4.2 -3.1,-7.7 -6.9,-7.7l-43.2,0c-3.8,0 -6.9,3.4 -6.9,7.7c0,4.3 3.1,7.8 6.9,7.8l43.2,0m-42.8,-51.4c-4,0 -7.3,3.4 -7.3,7.7c0,4.3 3.3,7.7 7.3,7.7l21.6,0c4,0 7.3,-3.5 7.3,-7.7c0,-4.3 -3.3,-7.7 -7.3,-7.7l-21.6,0"/>
 </g>
</svg>